<svg height="17" width="11" xmlns="http://www.w3.org/2000/svg"><path d="m6.016 16.328v-1.464c1.232-.08 2.22-.444 2.964-1.092s1.116-1.508 1.116-2.58v-.144c0-.992-.348-1.772-1.044-2.34s-1.708-.932-3.036-1.092v-3.432c.56.144 1.012.4 1.356.768s.516.816.516 1.344v.288h1.824v-.432c0-.448-.088-.876-.264-1.284a3.783 3.783 0 0 0 -.744-1.116 4.251 4.251 0 0 0 -1.164-.852 5.324 5.324 0 0 0 -1.524-.492v-1.536h-1.728v1.488a5.532 5.532 0 0 0 -1.416.324c-.448.168-.84.392-1.176.672s-.604.616-.804 1.008-.3.844-.3 1.356v.144c0 .96.316 1.708.948 2.244s1.548.884 2.748 1.044v3.912c-.704-.16-1.248-.472-1.632-.936s-.576-1.08-.576-1.848v-.288h-1.824v.576c0 .464.08.924.24 1.38s.404.88.732 1.272.744.728 1.248 1.008 1.108.476 1.812.588v1.512zm-1.728-8.904c-.688-.128-1.164-.332-1.428-.612s-.396-.644-.396-1.092c0-.464.176-.832.528-1.104s.784-.448 1.296-.528zm1.728 5.712v-3.792c.768.128 1.328.328 1.68.6s.528.688.528 1.248c0 .544-.196.984-.588 1.32s-.932.544-1.62.624z" fill="#9ebbbd"/></svg>